{"title":"AAliyah Love - Romantic Aggression","uid":11146310,"size":571503650,"categoryP":"porn","categoryS":"movies","magnet":"?xt=urn:btih:176ebfbfae76878abbb378e338157651bc3aad90&amp;dn=AAliyah+Love+-+Romantic+Aggression&amp;tr=udp%3A%2F%2Ftracker.openbittorrent.com%3A80&amp;tr=udp%3A%2F%2Fopen.demonii.com%3A1337&amp;tr=udp%3A%2F%2Ftracker.coppersurfer.tk%3A6969&amp;tr=udp%3A%2F%2Fexodus.desync.com%3A6969","seeders":0,"leechers":1,"uploader":"DavidL0ng","files":-1,"time":1412265772,"description":"screens;\n &lt;a href=&quot;\nhttp://bayimg.com/IaaCAAaGm&quot; rel=&quot;nofollow&quot; target=&quot;_NEW&quot;&gt;\nhttp://bayimg.com/IaaCAAaGm&lt;/a&gt;\n\nVideo\nID                                       : 0\nFormat                                   : MPEG-4 Visual\nFormat profile                           : Simple@L1\nFormat settings, BVOP                    : No\nFormat settings, QPel                    : No\nFormat settings, GMC                     : No warppoints\nFormat settings, Matrix                  : Default (H.263)\nCodec ID                                 : DX50\nCodec ID/Hint                            : DivX 5\nDuration                                 : 26mn 55s\nBit rate                                 : 2 562 Kbps\nWidth                                    : 720 pixels\nHeight                                   : 396 pixels\nDisplay aspect ratio                     : 16:9\nFrame rate                               : 29.970 fps\nColor space                              : YUV\nChroma subsampling                       : 4:2:0\nBit depth                                : 8 bits\nScan type                                : Interlaced\nScan order                               : Top Field First\nCompression mode                         : Lossy\nBits/(Pixel*Frame)                       : 0.300\nStream size                              : 493 MiB (90%)\nWriting library                          : Lavc52.72.2\n\nAudio\nID                                       : 1\nFormat                                   : MPEG Audio\nFormat version                           : Version 1\nFormat profile                           : Layer 3\nMode                                     : Joint stereo\nMode extension                           : MS Stereo\nCodec ID                                 : 55\nCodec ID/Hint                            : MP3\nDuration                                 : 26mn 55s\nBit rate mode                            : Constant\nBit rate                                 : 256 Kbps\nChannel(s)                               : 2 channels\nSampling rate                            : 44.1 KHz\nCompression mode                         : Lossy\nStream size                              : 49.3 MiB (9%)\nAlignment                                : Aligned on interleaves\nInterleave, duration                     : 26 ms (0.78 video frame)\nInterleave, preload duration             : 809 ms\nWriting library                          : LAME3.98.4\n","torrent":{"xt":"urn:btih:176ebfbfae76878abbb378e338157651bc3aad90","amp;dn":"AAliyah+Love+-+Romantic+Aggression","amp;tr":["udp%3A%2F%2Ftracker.openbittorrent.com%3A80","udp%3A%2F%2Fopen.demonii.com%3A1337","udp%3A%2F%2Ftracker.coppersurfer.tk%3A6969","udp%3A%2F%2Fexodus.desync.com%3A6969"],"infoHash":"176ebfbfae76878abbb378e338157651bc3aad90","infoHashBuffer":{"type":"Buffer","data":[23,110,191,191,174,118,135,138,187,179,120,227,56,21,118,81,188,58,173,144]},"announce":[],"urlList":[]}}